<svg width="30" height="30" viewBox="0 0 30 30" fill="none" xmlns="http://www.w3.org/2000/svg">
<path d="M20.6519 12.8906C20.6519 12.2434 20.1272 11.7188 19.48 11.7188H7.40967C6.76244 11.7188 6.23779 12.2434 6.23779 12.8906C6.23779 13.5379 6.76244 14.0625 7.40967 14.0625H19.48C20.1272 14.0625 20.6519 13.5379 20.6519 12.8906Z" fill="white"/>
<path d="M7.40967 16.4062C6.76244 16.4062 6.23779 16.9309 6.23779 17.5781C6.23779 18.2254 6.76244 18.75 7.40967 18.75H14.7404C15.3876 18.75 15.9123 18.2254 15.9123 17.5781C15.9123 16.9309 15.3876 16.4062 14.7404 16.4062H7.40967Z" fill="white"/>
<path d="M10.1634 27.6562H6.24414C4.9518 27.6562 3.90039 26.6048 3.90039 25.3125V4.6875C3.90039 3.39516 4.9518 2.34375 6.24414 2.34375H20.6517C21.944 2.34375 22.9954 3.39516 22.9954 4.6875V11.8945C22.9954 12.5418 23.5201 13.0664 24.1673 13.0664C24.8146 13.0664 25.3392 12.5418 25.3392 11.8945V4.6875C25.3392 2.10281 23.2364 0 20.6517 0H6.24414C3.65945 0 1.55664 2.10281 1.55664 4.6875V25.3125C1.55664 27.8972 3.65945 30 6.24414 30H10.1634C10.8106 30 11.3353 29.4754 11.3353 28.8281C11.3353 28.1809 10.8106 27.6562 10.1634 27.6562Z" fill="white"/>
<path d="M27.4147 16.9667C26.0439 15.5959 23.8136 15.5959 22.4437 16.9657L16.01 23.3853C15.8733 23.5216 15.7726 23.6895 15.7164 23.8742L14.3153 28.487C14.1911 28.896 14.2993 29.3401 14.5978 29.646C14.8213 29.8752 15.1251 29.9996 15.4366 29.9996C15.5409 29.9996 15.6461 29.9856 15.7494 29.957L20.4794 28.6467C20.674 28.5928 20.8515 28.4895 20.9944 28.3468L27.4147 21.9386C28.7855 20.5678 28.7855 18.3375 27.4147 16.9667ZM19.5568 26.4703L17.1772 27.1295L17.8736 24.8368L22.2147 20.5053L23.8723 22.1629L19.5568 26.4703ZM25.7583 20.2806L25.5312 20.5072L23.8739 18.8499L24.1002 18.6241C24.5571 18.1671 25.3005 18.1671 25.7575 18.6241C26.2144 19.081 26.2144 19.8244 25.7583 20.2806Z" fill="white"/>
<path d="M19.48 7.03125H7.40967C6.76244 7.03125 6.23779 7.5559 6.23779 8.20312C6.23779 8.85035 6.76244 9.375 7.40967 9.375H19.48C20.1272 9.375 20.6519 8.85035 20.6519 8.20312C20.6519 7.5559 20.1272 7.03125 19.48 7.03125Z" fill="white"/>
</svg>
