<svg width="21" height="21" viewBox="0 0 21 21" fill="none" xmlns="http://www.w3.org/2000/svg">
<path d="M17.7923 2.16732H15.709V1.12565C15.709 0.849384 15.5992 0.584432 15.4039 0.389081C15.2085 0.193731 14.9436 0.0839844 14.6673 0.0839844C14.391 0.0839844 14.1261 0.193731 13.9307 0.389081C13.7354 0.584432 13.6257 0.849384 13.6257 1.12565V2.16732H7.37565V1.12565C7.37565 0.849384 7.2659 0.584432 7.07055 0.389081C6.8752 0.193731 6.61025 0.0839844 6.33398 0.0839844C6.05772 0.0839844 5.79277 0.193731 5.59741 0.389081C5.40206 0.584432 5.29232 0.849384 5.29232 1.12565V2.16732H3.20898C2.38018 2.16732 1.58533 2.49656 0.999276 3.08261C0.413225 3.66866 0.0839844 4.46352 0.0839844 5.29232V17.7923C0.0839844 18.6211 0.413225 19.416 0.999276 20.002C1.58533 20.5881 2.38018 20.9173 3.20898 20.9173H17.7923C18.6211 20.9173 19.416 20.5881 20.002 20.002C20.5881 19.416 20.9173 18.6211 20.9173 17.7923V5.29232C20.9173 4.46352 20.5881 3.66866 20.002 3.08261C19.416 2.49656 18.6211 2.16732 17.7923 2.16732ZM18.834 17.7923C18.834 18.0686 18.7242 18.3335 18.5289 18.5289C18.3335 18.7242 18.0686 18.834 17.7923 18.834H3.20898C2.93272 18.834 2.66777 18.7242 2.47241 18.5289C2.27706 18.3335 2.16732 18.0686 2.16732 17.7923V10.5007H18.834V17.7923ZM18.834 8.41732H2.16732V5.29232C2.16732 5.01605 2.27706 4.7511 2.47241 4.55575C2.66777 4.3604 2.93272 4.25065 3.20898 4.25065H5.29232V5.29232C5.29232 5.56858 5.40206 5.83354 5.59741 6.02889C5.79277 6.22424 6.05772 6.33398 6.33398 6.33398C6.61025 6.33398 6.8752 6.22424 7.07055 6.02889C7.2659 5.83354 7.37565 5.56858 7.37565 5.29232V4.25065H13.6257V5.29232C13.6257 5.56858 13.7354 5.83354 13.9307 6.02889C14.1261 6.22424 14.391 6.33398 14.6673 6.33398C14.9436 6.33398 15.2085 6.22424 15.4039 6.02889C15.5992 5.83354 15.709 5.56858 15.709 5.29232V4.25065H17.7923C18.0686 4.25065 18.3335 4.3604 18.5289 4.55575C18.7242 4.7511 18.834 5.01605 18.834 5.29232V8.41732Z" fill="white"/>
</svg>
