<svg width="25" height="25" viewBox="0 0 25 25" fill="none" xmlns="http://www.w3.org/2000/svg">
<path fill-rule="evenodd" clip-rule="evenodd" d="M20.4686 22.918C21.7939 22.918 22.9165 21.7953 22.9165 20.4701L22.9165 15.7826C22.9165 14.4572 21.7939 13.3346 20.4686 13.3346L15.7811 13.3346C14.4557 13.3346 13.3331 14.4572 13.3331 15.7826L13.3331 20.4701C13.3331 21.7953 14.4557 22.918 15.7811 22.918L20.4686 22.918ZM20.8332 20.4701C20.8332 20.6447 20.6433 20.8346 20.4686 20.8346L15.7811 20.8346C15.6064 20.8346 15.4165 20.6447 15.4165 20.4701L15.4165 15.7826C15.4165 15.6078 15.6064 15.418 15.7811 15.418L20.4686 15.418C20.6433 15.418 20.8332 15.6078 20.8332 15.7826L20.8332 20.4701Z" fill="#2B4182"/>
<path fill-rule="evenodd" clip-rule="evenodd" d="M9.21859 22.918C10.5439 22.918 11.6665 21.7953 11.6665 20.4701L11.6665 15.7826C11.6665 14.4572 10.5439 13.3346 9.21859 13.3346L4.53109 13.3346C3.20578 13.3346 2.08317 14.4572 2.08317 15.7826L2.08317 20.4701C2.08317 21.7953 3.20577 22.918 4.53109 22.918L9.21859 22.918ZM9.58317 20.4701C9.58317 20.6447 9.39328 20.8346 9.21859 20.8346L4.53109 20.8346C4.3564 20.8346 4.1665 20.6447 4.1665 20.4701L4.1665 15.7826C4.1665 15.6078 4.3564 15.418 4.53109 15.418L9.21859 15.418C9.39328 15.418 9.58317 15.6078 9.58317 15.7826L9.58317 20.4701Z" fill="#2B4182"/>
<path fill-rule="evenodd" clip-rule="evenodd" d="M22.9165 9.22005C22.9165 10.5454 21.7939 11.668 20.4686 11.668L15.7811 11.668C14.4557 11.668 13.3331 10.5454 13.3331 9.22005L13.3331 4.53255C13.3331 3.20724 14.4557 2.08463 15.7811 2.08463L20.4686 2.08463C21.7939 2.08463 22.9165 3.20724 22.9165 4.53255L22.9165 9.22005ZM20.4686 9.58464C20.6433 9.58464 20.8332 9.39474 20.8332 9.22005L20.8332 4.53255C20.8332 4.35786 20.6433 4.16797 20.4686 4.16797L15.7811 4.16797C15.6064 4.16797 15.4165 4.35786 15.4165 4.53255L15.4165 9.22005C15.4165 9.39474 15.6064 9.58463 15.7811 9.58463L20.4686 9.58464Z" fill="#2B4182"/>
<path fill-rule="evenodd" clip-rule="evenodd" d="M9.21859 11.668C10.5439 11.668 11.6665 10.5454 11.6665 9.22005L11.6665 4.53255C11.6665 3.20724 10.5439 2.08463 9.21859 2.08463L4.53109 2.08463C3.20578 2.08463 2.08317 3.20724 2.08317 4.53255L2.08317 9.22005C2.08317 10.5454 3.20577 11.668 4.53109 11.668L9.21859 11.668ZM9.58317 9.22005C9.58317 9.39474 9.39328 9.58464 9.21859 9.58464L4.53109 9.58463C4.3564 9.58463 4.1665 9.39474 4.1665 9.22005L4.1665 4.53255C4.1665 4.35786 4.3564 4.16797 4.53109 4.16797L9.21859 4.16797C9.39328 4.16797 9.58317 4.35786 9.58317 4.53255L9.58317 9.22005Z" fill="#2B4182"/>
</svg>
