<svg width="16" height="16" viewBox="0 0 16 16" fill="none" xmlns="http://www.w3.org/2000/svg">
<g clip-path="url(#clip0_193_2131)">
<path d="M8.625 5.23517V4.1582C8.625 3.81302 8.34519 3.5332 8 3.5332C7.65481 3.5332 7.375 3.81302 7.375 4.1582V5.23517C7.375 5.58036 7.65481 5.86017 8 5.86017C8.34519 5.86017 8.625 5.58036 8.625 5.23517Z" fill="white"/>
<path d="M5.93981 5.52167C6.20513 5.30086 6.24116 4.90676 6.02035 4.64145C5.7995 4.37614 5.40544 4.34007 5.14013 4.56092C4.11513 5.41411 3.52725 6.66764 3.52725 8.00001C3.52725 10.4663 5.53372 12.4727 8 12.4727C10.4663 12.4727 12.4728 10.4663 12.4728 8.00004C12.4728 6.66764 11.8849 5.41414 10.8599 4.56095C10.5946 4.34014 10.2005 4.3762 9.97966 4.64148C9.75885 4.90676 9.79488 5.30086 10.0602 5.5217C10.799 6.1367 11.2228 7.04001 11.2228 8.00007C11.2228 9.77711 9.77703 11.2228 8 11.2228C6.22297 11.2228 4.77725 9.77707 4.77725 8.00004C4.77725 7.03998 5.201 6.13667 5.93981 5.52167Z" fill="white"/>
<path d="M13.6569 2.34313C12.1458 0.832156 10.1369 0 8 0C5.86312 0 3.85416 0.832156 2.34313 2.34313C0.832156 3.85416 0 5.86312 0 8C0 10.1369 0.832156 12.1458 2.34313 13.6568C3.85416 15.1678 5.86312 16 8 16C9.63684 16 11.2107 15.5089 12.5514 14.5799C12.8352 14.3833 12.9058 13.9939 12.7092 13.7102C12.5126 13.4264 12.1232 13.3558 11.8395 13.5524C10.7089 14.3359 9.38122 14.75 8 14.75C4.27803 14.75 1.25 11.722 1.25 8C1.25 4.27803 4.27803 1.25 8 1.25C11.722 1.25 14.75 4.27803 14.75 8C14.75 9.22241 14.42 10.4196 13.7957 11.4622C13.6184 11.7583 13.7148 12.1422 14.0109 12.3195C14.3071 12.4968 14.6909 12.4005 14.8682 12.1043C15.6086 10.8678 16 9.44853 16 8C16 5.86312 15.1678 3.85416 13.6569 2.34313Z" fill="white"/>
</g>
<defs>
<clipPath id="clip0_193_2131">
<rect width="16" height="16" fill="white"/>
</clipPath>
</defs>
</svg>
