<svg width="28" height="28" viewBox="0 0 28 28" fill="none" xmlns="http://www.w3.org/2000/svg">
<path fill-rule="evenodd" clip-rule="evenodd" d="M0 0V21.7777H17.4121V20.2222H1.55555V1.55555H22.5555V3.20444H24.111V0H0ZM24.111 7.77776C24.111 8.19031 23.9472 8.58597 23.6554 8.8777C23.3637 9.16942 22.9681 9.33331 22.5555 9.33331C22.1429 9.33331 21.7473 9.16942 21.4556 8.8777C21.1638 8.58597 20.9999 8.19031 20.9999 7.77776C20.9999 7.3652 21.1638 6.96954 21.4556 6.67782C21.7473 6.38609 22.1429 6.22221 22.5555 6.22221C22.9681 6.22221 23.3637 6.38609 23.6554 6.67782C23.9472 6.96954 24.111 7.3652 24.111 7.77776ZM25.6666 7.77776C25.6666 8.60287 25.3388 9.39419 24.7554 9.97764C24.1719 10.5611 23.3806 10.8889 22.5555 10.8889C21.7304 10.8889 20.9391 10.5611 20.3556 9.97764C19.7722 9.39419 19.4444 8.60287 19.4444 7.77776C19.4444 6.95264 19.7722 6.16132 20.3556 5.57787C20.9391 4.99443 21.7304 4.66665 22.5555 4.66665C23.3806 4.66665 24.1719 4.99443 24.7554 5.57787C25.3388 6.16132 25.6666 6.95264 25.6666 7.77776Z" fill="white"/>
<path fill-rule="evenodd" clip-rule="evenodd" d="M18.7398 12.3125C19.1735 11.8985 19.7501 11.6673 20.3497 11.667H23.5246C24.6633 11.667 25.7234 12.0543 26.5401 12.8259C27.3256 13.5679 27.7347 14.5191 27.902 15.4205C28.1648 16.8376 27.8926 18.3862 27.223 19.759V26.0558C27.223 26.5438 27.0395 27.0139 26.709 27.3729C26.3786 27.7319 25.9252 27.9535 25.4389 27.9937C24.9526 28.034 24.469 27.8899 24.084 27.5901C23.6989 27.2904 23.4407 26.8568 23.3605 26.3755L22.9452 23.8835L22.5299 26.3755C22.4497 26.8568 22.1914 27.2904 21.8064 27.5901C21.4214 27.8899 20.9378 28.034 20.4515 27.9937C19.9652 27.9535 19.5118 27.7319 19.1813 27.3729C18.8508 27.0139 18.6674 26.5438 18.6674 26.0558V18.7393C18.3127 18.9441 17.9103 19.052 17.5008 19.052H13.5325C12.9137 19.052 12.3202 18.8061 11.8826 18.3686C11.4451 17.931 11.1992 17.3375 11.1992 16.7186C11.1992 16.0998 11.4451 15.5063 11.8826 15.0687C12.3202 14.6312 12.9137 14.3853 13.5325 14.3853H16.5659L18.7398 12.3125ZM20.223 21.3697V26.0558C20.2232 26.1533 20.2601 26.247 20.3261 26.3186C20.3922 26.3902 20.4828 26.4343 20.5799 26.4423C20.6769 26.4504 20.7735 26.4217 20.8504 26.3619C20.9274 26.3021 20.9791 26.2157 20.9953 26.1196L21.8065 21.2539C21.8367 21.0722 21.9304 20.9072 22.0708 20.7882C22.2112 20.6691 22.3893 20.6037 22.5734 20.6036H23.317C23.5011 20.6037 23.6792 20.6691 23.8196 20.7882C23.96 20.9072 24.0537 21.0722 24.0838 21.2539L24.8951 26.1196C24.9113 26.2157 24.963 26.3021 25.0399 26.3619C25.1169 26.4217 25.2134 26.4504 25.3105 26.4423C25.4076 26.4343 25.4981 26.3902 25.5642 26.3186C25.6303 26.247 25.6671 26.1533 25.6674 26.0558V19.5739C25.6674 19.4493 25.6973 19.3266 25.7545 19.2161C26.355 18.0572 26.5735 16.7871 26.3728 15.7044C26.2507 15.0464 25.9653 14.4227 25.4722 13.9568C24.969 13.4815 24.3016 13.2225 23.5246 13.2225H20.3505C20.1506 13.2225 19.9577 13.2995 19.8131 13.4372L17.4144 15.7254C17.2699 15.8635 17.0777 15.9407 16.8778 15.9409H13.5325C13.3263 15.9409 13.1284 16.0228 12.9826 16.1687C12.8367 16.3145 12.7548 16.5124 12.7548 16.7186C12.7548 16.9249 12.8367 17.1228 12.9826 17.2686C13.1284 17.4145 13.3263 17.4964 13.5325 17.4964H17.5008C17.7007 17.4963 17.8929 17.4191 18.0374 17.281L18.9085 16.4503C19.0187 16.3453 19.1574 16.2749 19.3072 16.2478C19.457 16.2208 19.6115 16.2384 19.7515 16.2983C19.8914 16.3583 20.0107 16.458 20.0945 16.5851C20.1783 16.7122 20.223 16.8612 20.223 17.0134V21.3705V21.3697Z" fill="white"/>
</svg>
