<svg width="30" height="30" viewBox="0 0 30 30" fill="none" xmlns="http://www.w3.org/2000/svg">
<path d="M27.3633 2.17139H2.63672C1.18283 2.17139 0 3.35422 0 4.80811V20.0425C0 21.4964 1.18283 22.6792 2.63672 22.6792H17.8711V26.5085C17.8711 27.0205 18.158 27.476 18.6196 27.6973C18.8033 27.7853 18.9984 27.8285 19.192 27.8285C19.4852 27.8285 19.7749 27.7293 20.0153 27.5361L21.5625 26.2928L23.1097 27.5361C23.5088 27.8569 24.0436 27.9185 24.5053 27.6973C24.967 27.476 25.2538 27.0205 25.2538 26.5085V22.6792H27.3632C28.8171 22.6792 29.9999 21.4964 29.9999 20.0425V4.80811C30 3.35422 28.8172 2.17139 27.3633 2.17139ZM21.5625 20.9214C19.4624 20.9214 17.7539 19.2129 17.7539 17.1128C17.7539 15.0127 19.4624 13.3042 21.5625 13.3042C23.6626 13.3042 25.3711 15.0127 25.3711 17.1128C25.3711 19.2129 23.6626 20.9214 21.5625 20.9214ZM24.4336 12.3457C23.5948 11.8386 22.6121 11.5464 21.5625 11.5464C18.4932 11.5464 15.9961 14.0435 15.9961 17.1128C15.9961 17.1324 15.9966 17.1519 15.9969 17.1714H8.75426C8.41102 15.5815 7.15629 14.3268 5.56641 13.9836V10.8671C7.15629 10.5239 8.41096 9.26914 8.75426 7.67926H21.2458C21.589 9.26914 22.8437 10.5239 24.4336 10.8671V12.3457ZM22.113 24.4802C21.7915 24.2218 21.3336 24.2218 21.012 24.4802L19.6289 25.5915V22.3326C20.2315 22.5566 20.8829 22.6792 21.5625 22.6792C22.2421 22.6792 22.8935 22.5566 23.4961 22.3326V25.5915L22.113 24.4802ZM28.2422 20.0425C28.2422 20.5271 27.8479 20.9214 27.3633 20.9214H25.618C26.5543 19.9249 27.1289 18.5848 27.1289 17.1128C27.1289 15.9712 26.7833 14.9089 26.1914 14.0247V10.0815C26.1914 9.59615 25.7979 9.20264 25.3125 9.20264C23.9879 9.20264 22.9102 8.12492 22.9102 6.80029C22.9102 6.3149 22.5166 5.92139 22.0312 5.92139H7.96875C7.48336 5.92139 7.08984 6.3149 7.08984 6.80029C7.08984 8.12492 6.01213 9.20264 4.6875 9.20264C4.20211 9.20264 3.80859 9.59615 3.80859 10.0815V14.769C3.80859 15.2544 4.20211 15.6479 4.6875 15.6479C6.01213 15.6479 7.08984 16.7257 7.08984 18.0503C7.08984 18.5357 7.48336 18.9292 7.96875 18.9292H16.3007C16.5601 19.6783 16.9751 20.3553 17.507 20.9214H2.63672C2.15209 20.9214 1.75781 20.5271 1.75781 20.0425V4.80811C1.75781 4.32348 2.15209 3.9292 2.63672 3.9292H27.3633C27.8479 3.9292 28.2422 4.32348 28.2422 4.80811V20.0425Z" fill="white"/>
</svg>
